<?xml version="1.0" standalone="no"?>
<!DOCTYPE svg PUBLIC "-//W3C//DTD SVG 20010904//EN"
 "http://www.w3.org/TR/2001/REC-SVG-20010904/DTD/svg10.dtd">
<svg version="1.0" xmlns="http://www.w3.org/2000/svg"
 width="153.000000pt" height="153.000000pt" viewBox="0 0 153.000000 153.000000"
 preserveAspectRatio="xMidYMid meet">
<metadata>
Created by potrace 1.14, written by Peter Selinger 2001-2017
</metadata>
<g transform="translate(0.000000,153.000000) scale(0.100000,-0.100000)"
fill="#000000" stroke="none">
<path d="M860 1136 c19 -7 43 -17 53 -21 9 -4 17 -4 17 -1 0 10 -66 36 -87 36
-10 -1 -2 -7 17 -14z"/>
<path d="M744 1116 c-10 -26 0 -51 21 -51 16 0 20 7 20 30 0 33 -30 49 -41 21z
m34 -24 c2 -14 -2 -22 -11 -22 -9 0 -14 10 -14 25 0 31 21 28 25 -3z"/>
<path d="M644 1096 c-7 -19 13 -56 31 -56 20 0 28 17 21 46 -7 27 -43 34 -52
10z m42 -34 c-9 -8 -26 10 -26 26 1 15 2 15 15 -2 8 -11 13 -21 11 -24z"/>
<path d="M834 1084 c-6 -24 6 -43 28 -44 12 0 30 41 24 56 -9 25 -45 17 -52
-12z m39 -4 c-6 -24 -19 -34 -27 -21 -9 14 4 41 19 41 8 0 11 -8 8 -20z"/>
<path d="M940 1106 c0 -2 19 -19 43 -37 39 -30 40 -31 17 -5 -24 26 -60 52
-60 42z"/>
<path d="M580 1062 c-25 -8 -30 -26 -13 -44 21 -23 53 -23 53 0 -1 25 -23 50
-40 44z m20 -27 c7 -9 10 -18 7 -22 -8 -7 -37 15 -37 28 0 14 16 11 30 -6z"/>
<path d="M920 1048 c-12 -22 -12 -22 6 -6 10 10 15 20 12 24 -4 3 -12 -5 -18
-18z"/>
<path d="M959 1047 c6 -8 7 -18 3 -22 -4 -5 -1 -5 6 -1 10 6 10 11 1 22 -6 8
-14 14 -16 14 -3 0 0 -6 6 -13z"/>
<path d="M392 1025 c4 -18 1 -20 -27 -17 -27 3 -41 -3 -75 -35 -24 -21 -49
-53 -57 -71 -13 -32 -13 -35 16 -64 50 -51 86 -208 62 -271 -14 -36 3 -70 58
-120 45 -41 77 -52 125 -44 30 5 33 3 28 -16 l-5 -21 29 21 c103 72 335 72
438 0 l29 -21 -5 21 c-5 18 -1 19 41 16 39 -4 53 0 91 26 71 47 82 75 84 205
2 118 17 169 67 215 20 18 20 23 9 50 -7 17 -32 49 -57 72 -36 33 -50 40 -74
37 -24 -4 -29 -1 -29 16 0 20 0 20 -15 -1 -18 -25 -98 -60 -103 -44 -2 6 -8
11 -13 11 -4 0 -6 -7 -2 -16 4 -11 0 -15 -13 -13 -10 1 -26 -1 -34 -4 -73 -30
-376 -22 -394 10 -6 12 -10 12 -16 3 -4 -7 -13 -9 -19 -6 -6 4 -9 12 -6 17 4
5 2 9 -4 9 -5 0 -11 -5 -13 -11 -5 -15 -57 7 -92 39 -26 24 -28 25 -24 7z
m768 -97 c0 -12 7 -29 15 -38 9 -10 20 -31 25 -49 7 -25 5 -33 -10 -44 -22
-15 -40 -97 -21 -97 6 0 11 -6 11 -13 0 -7 -9 -13 -21 -13 -19 0 -21 4 -15 45
3 24 6 52 6 62 0 10 9 19 23 22 19 4 19 4 -5 6 -35 1 -43 16 -18 34 18 12 18
16 6 26 -19 16 -36 -13 -36 -61 0 -19 -5 -39 -11 -45 -7 -7 -10 -38 -7 -81 l3
-69 -30 16 c-30 15 -31 17 -27 71 3 39 0 61 -9 71 -8 8 -15 34 -16 59 -1 25
-4 55 -8 66 -5 17 -2 22 19 26 23 5 26 2 26 -26 0 -17 3 -42 7 -55 5 -22 7
-21 24 15 10 22 15 49 12 61 -4 18 0 25 18 32 30 11 39 6 39 -21z m-663 -9
c29 -18 34 -26 31 -53 -3 -33 -21 -39 -26 -9 -6 28 -18 35 -49 29 -29 -7 -29
-8 -23 -56 4 -28 3 -50 -1 -50 -15 0 -20 -40 -9 -80 9 -32 15 -40 33 -40 13 0
28 5 35 12 15 15 16 54 2 63 -14 8 -13 25 2 25 6 0 19 -7 28 -15 14 -12 16
-24 10 -57 -9 -48 -31 -68 -75 -68 -42 0 -64 26 -82 97 -17 68 -17 64 -4 128
11 51 47 95 78 95 9 0 31 -10 50 -21z m151 -25 c7 -2 19 -18 27 -36 12 -29 12
-36 -2 -57 -11 -17 -12 -26 -4 -34 6 -6 11 -29 11 -51 0 -56 22 -76 82 -76 27
0 58 5 70 11 25 14 33 6 18 -18 -9 -14 -26 -19 -60 -21 -91 -4 -157 39 -152
99 2 24 -2 40 -13 49 -23 19 -37 -4 -31 -52 4 -36 -5 -47 -37 -48 -5 0 -9 56
-10 124 l-2 125 45 -5 c25 -3 51 -7 58 -10z m342 -13 c0 -12 -4 -21 -9 -21 -5
0 -15 -17 -22 -37 -7 -21 -20 -51 -30 -68 -24 -39 -24 -42 8 -48 33 -6 53 1
53 19 0 8 5 14 10 14 6 0 10 -20 10 -45 0 -25 -2 -45 -4 -45 -2 0 -23 7 -46
15 -23 8 -55 15 -71 15 -42 0 -41 7 20 126 26 52 26 56 -1 52 -13 -2 -27 -13
-33 -25 -14 -32 -25 -29 -25 6 0 51 6 56 75 59 60 3 65 1 65 -17z m-183 -32
c1 -23 7 -46 12 -53 6 -7 8 -22 4 -34 -3 -13 2 -33 12 -48 20 -32 15 -38 -24
-29 -20 4 -30 12 -29 23 3 36 -3 52 -17 52 -14 0 -20 -24 -16 -57 2 -13 -46
-30 -56 -20 -3 3 2 13 11 22 9 9 16 26 16 37 0 12 -3 18 -7 15 -9 -9 -34 13
-27 24 3 5 14 9 24 9 13 0 22 11 29 36 5 19 8 41 5 48 -3 9 6 13 28 14 33 1
34 0 35 -39z m-330 -285 c-22 -14 -36 -31 -33 -39 3 -9 -2 -11 -15 -8 -31 9
-21 31 26 56 48 26 63 19 22 -9z m208 -24 c7 -48 2 -70 -14 -70 -13 0 -29 109
-17 114 22 9 24 5 31 -44z m113 24 l12 -25 23 25 c14 15 28 22 37 18 22 -10 6
-112 -17 -112 -11 0 -14 8 -11 32 l5 32 -22 -28 -22 -28 -11 31 c-14 40 -26
40 -20 1 3 -20 0 -30 -9 -30 -7 0 -13 10 -14 23 0 12 -2 37 -3 55 -3 27 -1 32
19 32 14 0 26 -9 33 -26z m275 10 c49 -25 60 -48 28 -57 -13 -3 -18 -1 -15 8
3 8 -11 25 -33 39 -42 29 -30 35 20 10z m-473 -29 c0 -7 -6 -15 -14 -17 -12
-2 -12 -9 -2 -40 12 -32 11 -38 -2 -43 -17 -6 -29 7 -38 43 -5 17 -12 22 -25
19 -26 -7 -32 21 -7 34 29 16 71 27 81 22 4 -2 7 -10 7 -18z m434 -14 c3 -4 1
-13 -4 -21 -7 -12 -12 -12 -22 -2 -6 6 -19 12 -27 12 -13 -1 -13 -2 2 -11 23
-14 22 -33 -3 -26 -29 7 -25 -10 5 -20 17 -6 22 -12 16 -22 -7 -11 -14 -11
-45 0 -30 11 -36 17 -32 34 3 11 9 36 12 57 l6 36 44 -15 c24 -8 46 -18 48
-22z"/>
<path d="M595 833 c9 -37 13 -40 32 -21 20 21 10 48 -18 48 -18 0 -20 -4 -14
-27z"/>
<path d="M757 803 c-12 -11 -8 -23 8 -23 8 0 15 7 15 15 0 16 -12 20 -23 8z"/>
<path d="M1030 1021 c0 -6 4 -13 10 -16 6 -3 7 1 4 9 -7 18 -14 21 -14 7z"/>
<path d="M240 741 c-16 -40 10 -90 48 -91 15 0 15 31 0 81 -13 46 -31 50 -48
10z"/>
<path d="M1254 735 c-18 -14 -18 -14 10 -15 16 0 38 -7 48 -17 16 -14 18 -14
18 0 0 19 -26 47 -44 47 -7 0 -21 -7 -32 -15z"/>
<path d="M1236 678 c-11 -41 -7 -58 13 -58 17 0 18 4 11 36 -10 45 -16 51 -24
22z"/>
<path d="M710 416 c0 -38 80 -49 104 -14 18 25 11 41 -7 17 -20 -26 -44 -29
-71 -8 -21 17 -26 18 -26 5z"/>
<path d="M670 416 c0 -34 58 -76 105 -76 27 0 85 48 85 69 0 6 -13 -3 -29 -21
-22 -25 -36 -32 -66 -32 -31 0 -43 6 -67 34 -15 19 -28 31 -28 26z"/>
</g>
</svg>
